<svg class="svg-world" xmlns="http://www.w3.org/2000/svg" viewBox="0 0 185.5 192" aria-labelledby="title" role="img">
 <title id="title">SVG Imagem Mapa</title>
 <style type="text/css"><![CDATA[.sta0{fill:#942424;}.sta1{fill:#FFFFFF;}.sta2{fill:#CC3333;}.world{fill:#399CD7;}#pin {animation: 2.4s linear 0s normal none infinite running movePin;-moz-animation: 2.4s linear 0s normal none infinite running movePin;-webkit-animation: 2.4s linear 0s normal none infinite running movePin;}@keyframes movePin{0, 100% {transform: translate3d(0);-moz-transform: translate3d(0);-webkit-transform: translate3d(0);}50% {transform: translate3d(0,-10px,0);-moz-transform: translate3d(0,-10px,0);-webkit-transform: translate3d(0,-10px,0);}}@-webkit-keyframes movePin{0, 100% {transform: translate3d(0);-moz-transform: translate3d(0);-webkit-transform: translate3d(0);}50% {transform: translate3d(0,-10px,0);-moz-transform: translate3d(0,-10px,0);-webkit-transform: translate3d(0,-10px,0);}}]]></style>
 <g id="world"><path class="sta1" d="M32.5 80.1c3.5 0 .8 8.9 5.8 10.1 5 1.2 7.4-3.7 7.4-3.7s9.3 1 11.8 6c1.7-1.9 9.3-2.3 9.3-2.3s9.5 4.5 14 9.5c4.6 5 21.8 9.5 3.5 27.7 0 0-.6 13.4-6.4 18-5.8 4.5-8.3 15.1-10.7 16.3-2.5 1.2 5.8 7 5.8 7s-2.5 10.3-10.3 0c-7.8-10.3-12-41.3-12-41.3s-25.8-5.7-11.2-30.6L16 86.5 4.1 80.3l-.1-.1C3.2 85.3 2.7 90.6 2.7 96c0 52 41 94.2 91.6 94.2 28 0 53-12.9 69.8-33.2l-1.2-.7s-2 .8-3.1-4.2c-1.1-5.1.7-8.6.7-8.6-4.9.4-.9-4.5-3.8-4.5s-3.3-5.2-2.9-9.9c.4-4.8 3.5-4.3 3.5-4.3l-.2-3.9-1-4.1-1.2-6.4-3.9-1s-3.9.8-5.4-1.2c-1.5-2.1-6.6 3.5-6.6 3.5s-9.5-1.9-15.7-3.1c-6.2-1.2-3.7-18.8-3.3-21.5.4-2.7 6 1 2.9-4.5-3.1-5.6.5-8.5 3.7-10.9 3.3-2.5 8.3 2.7 8.3-1.2 0-3.8 5.1-3.3 5.1-3.3h10.6s9.1 8.4 9.9 6.4c.9-2.1 5.7-5 8.2-6.2 2.5-1.2 6.6 4.5 6.6 4.5l7.4-.3c-.9-3.5-2-6.8-3.3-10.1l-4.7-.2s-2.7-2.1-2.5-2.4c.2-.3-4.9-3.1-4.7-4.7.2-1.7-5.3-5.3-7.2-3.4-2 1.9 5.7 5.1 5.8 6.1.1 1-2.1 3.2-5.1 4.9-3 1.7-1.4-2.5-3.4-1.8-2.1.7-3.4-6.3-3.2-7 .2-.7-1.9-3.5-3.8-.5-2 3-9.8 6-9.8 6s-5.9-.4-7.3 0c-1.4.4-4-4.4-3-10.3s12-2.7 12-2.7.3-6.4 1.9-7.1c1.6-.7 10 .5 8.5 0s2.3-3.5 2.3-3.5c-9.1 0-9.4-7.6-7.5-15.1-15-11-33.4-17.6-53.3-17.6C74.9 1.8 56.8 8.1 42 18.7l.7.3s8.8 3.3 11.2 5.8c2.4 2.5.7.4 2.8-1.1 2.1-1.6 4.3-4.4 5.5-4.7 1.1-.3 8.4-1 9.8 0 1.4.9 6.2 9.1 5.4 9.8-.8.7-13 1.6-15.2.5-2.2-1.1-13.2 3.8-14 2.5-.8-1.3 3.2 6.3-.4 6.2-3.6-.1 7 7.9 11.1 1.5 1.9-3 8.3.4 14.4-5 8.2-7.2 8.6 4.3 8.6 4.3s1.7 2.5-.2 5.4c-2.6 4-5.5 8.8-11.9 3.8-1-.8-7.1.4-10.7 0-19.8-2-8.6 32.4-12.7 30.4m85.2-47l4.7.5s3.6 2.8 3.6 3.2c0 .4-1.1 2.7-1.5 3.1-.3.4-1.8 2.8-2.8 3.1-1 .3-2.9 0-2.9 0s1.4-2.3-.7-3.1c-2.2-.8-2.3-5-2.3-5l1.9-1.8zm-8.3 3.7h4.4l1.3 1 1.2 3s-1.5 2-4.2 2.2c-2.7.2-1.8-1.3-2.8-1.8-.9-.4.1-4.4.1-4.4zM76.5 59.5c-.4.8-1.9 2.1-4.3 1.4-2.5-.6-1.2-4.3-1.9-6.4h3.4c3.4 0 1.5.2 2.8 1.4 1.2 1.3.4 2.7 0 3.6zm5.3-1.7c-2.3-.6-1.6 1.9-3.5 0s-1.2-6.6-1.2-6.6h6.4s.6 7.2-1.7 6.6z"/><path class="world" d="M32.5 80.1c3.5 0 .8 8.9 5.8 10.1 5 1.2 7.4-3.7 7.4-3.7s9.3 1 11.8 6c1.7-1.9 9.3-2.3 9.3-2.3s9.5 4.5 14 9.5c4.6 5 21.8 9.5 3.5 27.7 0 0-.6 13.4-6.4 18-5.8 4.5-8.3 15.1-10.7 16.3-2.5 1.2 5.8 7 5.8 7s-2.5 10.3-10.3 0c-7.8-10.3-12-41.3-12-41.3s-25.8-5.7-11.2-30.6L16 86.5 4.1 80.3l-.1-.1C3.2 85.3 2.7 90.6 2.7 96c0 52 41 94.2 91.6 94.2 28 0 53-12.9 69.8-33.2l-1.2-.7s-2 .8-3.1-4.2c-1.1-5.1.7-8.6.7-8.6-4.9.4-.9-4.5-3.8-4.5s-3.3-5.2-2.9-9.9c.4-4.8 3.5-4.3 3.5-4.3l-.2-3.9-1-4.1-1.2-6.4-3.9-1s-3.9.8-5.4-1.2c-1.5-2.1-6.6 3.5-6.6 3.5s-9.5-1.9-15.7-3.1c-6.2-1.2-3.7-18.8-3.3-21.5.4-2.7 6 1 2.9-4.5-3.1-5.6.5-8.5 3.7-10.9 3.3-2.5 8.3 2.7 8.3-1.2 0-3.8 5.1-3.3 5.1-3.3h10.6s9.1 8.4 9.9 6.4c.9-2.1 5.7-5 8.2-6.2 2.5-1.2 6.6 4.5 6.6 4.5l7.4-.3c-.9-3.5-2-6.8-3.3-10.1l-4.7-.2s-2.7-2.1-2.5-2.4c.2-.3-4.9-3.1-4.7-4.7.2-1.7-5.3-5.3-7.2-3.4-2 1.9 5.7 5.1 5.8 6.1.1 1-2.1 3.2-5.1 4.9-3 1.7-1.4-2.5-3.4-1.8-2.1.7-3.4-6.3-3.2-7 .2-.7-1.9-3.5-3.8-.5-2 3-9.8 6-9.8 6s-5.9-.4-7.3 0c-1.4.4-4-4.4-3-10.3s12-2.7 12-2.7.3-6.4 1.9-7.1c1.6-.7 10 .5 8.5 0s2.3-3.5 2.3-3.5c-9.1 0-9.4-7.6-7.5-15.1-15-11-33.4-17.6-53.3-17.6C74.9 1.8 56.8 8.1 42 18.7l.7.3s8.8 3.3 11.2 5.8c2.4 2.5.7.4 2.8-1.1 2.1-1.6 4.3-4.4 5.5-4.7 1.1-.3 8.4-1 9.8 0 1.4.9 6.2 9.1 5.4 9.8-.8.7-13 1.6-15.2.5-2.2-1.1-13.2 3.8-14 2.5-.8-1.3 3.2 6.3-.4 6.2-3.6-.1 7 7.9 11.1 1.5 1.9-3 8.3.4 14.4-5 8.2-7.2 8.6 4.3 8.6 4.3s1.7 2.5-.2 5.4c-2.6 4-5.5 8.8-11.9 3.8-1-.8-7.1.4-10.7 0-19.8-2-8.6 32.4-12.7 30.4m85.2-47l4.7.5s3.6 2.8 3.6 3.2c0 .4-1.1 2.7-1.5 3.1-.3.4-1.8 2.8-2.8 3.1-1 .3-2.9 0-2.9 0s1.4-2.3-.7-3.1c-2.2-.8-2.3-5-2.3-5l1.9-1.8zm-8.3 3.7h4.4l1.3 1 1.2 3s-1.5 2-4.2 2.2c-2.7.2-1.8-1.3-2.8-1.8-.9-.4.1-4.4.1-4.4zM76.5 59.5c-.4.8-1.9 2.1-4.3 1.4-2.5-.6-1.2-4.3-1.9-6.4h3.4c3.4 0 1.5.2 2.8 1.4 1.2 1.3.4 2.7 0 3.6zm5.3-1.7c-2.3-.6-1.6 1.9-3.5 0s-1.2-6.6-1.2-6.6h6.4s.6 7.2-1.7 6.6z"/></g><g id="pin"><path class="sta2" d="M79.8 123.1c0-5.5-4.5-10-10-10s-10 4.5-10 10c0 2.3 1 4.3 2 6l8.1 13.3 7.8-13.3c1.1-1.7 2.1-3.8 2.1-6z"/><circle class="sta0" cx="69.9" cy="123.1" r="5.6"/><circle class="sta1" cx="69.9" cy="123.1" r="3.1"/></g>
</svg>