   <svg id="svg-world" class="svg-world" version="1.1" id="Layer_1" xmlns="http://www.w3.org/2000/svg" xmlns:xlink="http://www.w3.org/1999/xlink" x="0px" y="0px"
   	viewBox="0 0 185.5 192"  xml:space="preserve">
   	<style type="text/css">
   		<![CDATA[
   		.sta0{fill:#942424;}
   		.sta1{fill:#FFFFFF;}
   		.sta2{fill:#CC3333;}
   		.world{fill:#399CD7;}
   		#pin {
   			animation: 2.4s linear 0s normal none infinite running movePin;
			-moz-animation: 2.4s linear 0s normal none infinite running movePin;
			-webkit-animation: 2.4s linear 0s normal none infinite running movePin; 

			}

   		@keyframes movePin{

			0, 100% {
				transform: translate3d(0);
				-moz-transform: translate3d(0);
				-webkit-transform: translate3d(0);
			}

			50% {
				transform: translate3d(0,-10px,0);
				-moz-transform: translate3d(0,-10px,0);
				-webkit-transform: translate3d(0,-10px,0);
			}

   		}

   		@-webkit-keyframes movePin{

			0, 100% {
				transform: translate3d(0);
				-moz-transform: translate3d(0);
				-webkit-transform: translate3d(0);
			}

			50% {
				transform: translate3d(0,-10px,0);
				-moz-transform: translate3d(0,-10px,0);
				-webkit-transform: translate3d(0,-10px,0);
			}

   		}
   		]]>
   	</style>
   	<g id="world">
   		<g>
   			<path class="sta1" d="M32.5,80.1c3.5,0,0.8,8.9,5.8,10.1c5,1.2,7.4-3.7,7.4-3.7s9.3,1,11.8,6c1.7-1.9,9.3-2.3,9.3-2.3
   				s9.5,4.5,14,9.5c4.6,5,21.8,9.5,3.5,27.7c0,0-0.6,13.4-6.4,18c-5.8,4.5-8.3,15.1-10.7,16.3c-2.5,1.2,5.8,7,5.8,7s-2.5,10.3-10.3,0
   				c-7.8-10.3-12-41.3-12-41.3s-25.8-5.7-11.2-30.6L16,86.5L4.1,80.3L4,80.2C3.2,85.3,2.7,90.6,2.7,96c0,52,41,94.2,91.6,94.2
   				c28,0,53-12.9,69.8-33.2l-1.2-0.7c0,0-2,0.8-3.1-4.2c-1.1-5.1,0.7-8.6,0.7-8.6c-4.9,0.4-0.9-4.5-3.8-4.5c-2.9,0-3.3-5.2-2.9-9.9
   				c0.4-4.8,3.5-4.3,3.5-4.3l-0.2-3.9l-1-4.1l-1.2-6.4l-3.9-1c0,0-3.9,0.8-5.4-1.2c-1.5-2.1-6.6,3.5-6.6,3.5s-9.5-1.9-15.7-3.1
   				c-6.2-1.2-3.7-18.8-3.3-21.5c0.4-2.7,6,1,2.9-4.5c-3.1-5.6,0.5-8.5,3.7-10.9c3.3-2.5,8.3,2.7,8.3-1.2c0-3.8,5.1-3.3,5.1-3.3h10.6
   				c0,0,9.1,8.4,9.9,6.4c0.9-2.1,5.7-5,8.2-6.2c2.5-1.2,6.6,4.5,6.6,4.5l7.4-0.3c-0.9-3.5-2-6.8-3.3-10.1l-4.7-0.2
   				c0,0-2.7-2.1-2.5-2.4c0.2-0.3-4.9-3.1-4.7-4.7c0.2-1.7-5.3-5.3-7.2-3.4c-2,1.9,5.7,5.1,5.8,6.1c0.1,1-2.1,3.2-5.1,4.9
   				c-3,1.7-1.4-2.5-3.4-1.8c-2.1,0.7-3.4-6.3-3.2-7c0.2-0.7-1.9-3.5-3.8-0.5c-2,3-9.8,6-9.8,6s-5.9-0.4-7.3,0c-1.4,0.4-4-4.4-3-10.3
   				c1-5.9,12-2.7,12-2.7s0.3-6.4,1.9-7.1c1.6-0.7,10,0.5,8.5,0c-1.5-0.5,2.3-3.5,2.3-3.5c-9.1,0-9.4-7.6-7.5-15.1
   				c-15-11-33.4-17.6-53.3-17.6C74.9,1.8,56.8,8.1,42,18.7l0.7,0.3c0,0,8.8,3.3,11.2,5.8c2.4,2.5,0.7,0.4,2.8-1.1
   				c2.1-1.6,4.3-4.4,5.5-4.7c1.1-0.3,8.4-1,9.8,0c1.4,0.9,6.2,9.1,5.4,9.8c-0.8,0.7-13,1.6-15.2,0.5C60,28.2,49,33.1,48.2,31.8
   				c-0.8-1.3,3.2,6.3-0.4,6.2c-3.6-0.1,7,7.9,11.1,1.5c1.9-3,8.3,0.4,14.4-5c8.2-7.2,8.6,4.3,8.6,4.3s1.7,2.5-0.2,5.4
   				c-2.6,4-5.5,8.8-11.9,3.8c-1-0.8-7.1,0.4-10.7,0C39.3,46,50.5,80.4,46.4,78.4 M131.6,31.4l4.7,0.5c0,0,3.6,2.8,3.6,3.2
   				c0,0.4-1.1,2.7-1.5,3.1c-0.3,0.4-1.8,2.8-2.8,3.1c-1,0.3-2.9,0-2.9,0s1.4-2.3-0.7-3.1c-2.2-0.8-2.3-5-2.3-5L131.6,31.4z
   				M123.3,35.1h4.4l1.3,1l1.2,3c0,0-1.5,2-4.2,2.2c-2.7,0.2-1.8-1.3-2.8-1.8C122.3,39.1,123.3,35.1,123.3,35.1z M76.5,59.5
   				c-0.4,0.8-1.9,2.1-4.3,1.4c-2.5-0.6-1.2-4.3-1.9-6.4h3.4c3.4,0,1.5,0.2,2.8,1.4C77.7,57.2,76.9,58.6,76.5,59.5z M81.8,57.8
   				c-2.3-0.6-1.6,1.9-3.5,0c-1.9-1.9-1.2-6.6-1.2-6.6h6.4C83.5,51.2,84.1,58.4,81.8,57.8z"/>
   			</g>
   			<g>
   				<path class="world" d="M32.5,80.1c3.5,0,0.8,8.9,5.8,10.1c5,1.2,7.4-3.7,7.4-3.7s9.3,1,11.8,6c1.7-1.9,9.3-2.3,9.3-2.3
   					s9.5,4.5,14,9.5c4.6,5,21.8,9.5,3.5,27.7c0,0-0.6,13.4-6.4,18c-5.8,4.5-8.3,15.1-10.7,16.3c-2.5,1.2,5.8,7,5.8,7s-2.5,10.3-10.3,0
   					c-7.8-10.3-12-41.3-12-41.3s-25.8-5.7-11.2-30.6L16,86.5L4.1,80.3L4,80.2C3.2,85.3,2.7,90.6,2.7,96c0,52,41,94.2,91.6,94.2
   					c28,0,53-12.9,69.8-33.2l-1.2-0.7c0,0-2,0.8-3.1-4.2c-1.1-5.1,0.7-8.6,0.7-8.6c-4.9,0.4-0.9-4.5-3.8-4.5c-2.9,0-3.3-5.2-2.9-9.9
   					c0.4-4.8,3.5-4.3,3.5-4.3l-0.2-3.9l-1-4.1l-1.2-6.4l-3.9-1c0,0-3.9,0.8-5.4-1.2c-1.5-2.1-6.6,3.5-6.6,3.5s-9.5-1.9-15.7-3.1
   					c-6.2-1.2-3.7-18.8-3.3-21.5c0.4-2.7,6,1,2.9-4.5c-3.1-5.6,0.5-8.5,3.7-10.9c3.3-2.5,8.3,2.7,8.3-1.2c0-3.8,5.1-3.3,5.1-3.3h10.6
   					c0,0,9.1,8.4,9.9,6.4c0.9-2.1,5.7-5,8.2-6.2c2.5-1.2,6.6,4.5,6.6,4.5l7.4-0.3c-0.9-3.5-2-6.8-3.3-10.1l-4.7-0.2
   					c0,0-2.7-2.1-2.5-2.4c0.2-0.3-4.9-3.1-4.7-4.7c0.2-1.7-5.3-5.3-7.2-3.4c-2,1.9,5.7,5.1,5.8,6.1c0.1,1-2.1,3.2-5.1,4.9
   					c-3,1.7-1.4-2.5-3.4-1.8c-2.1,0.7-3.4-6.3-3.2-7c0.2-0.7-1.9-3.5-3.8-0.5c-2,3-9.8,6-9.8,6s-5.9-0.4-7.3,0c-1.4,0.4-4-4.4-3-10.3
   					c1-5.9,12-2.7,12-2.7s0.3-6.4,1.9-7.1c1.6-0.7,10,0.5,8.5,0c-1.5-0.5,2.3-3.5,2.3-3.5c-9.1,0-9.4-7.6-7.5-15.1
   					c-15-11-33.4-17.6-53.3-17.6C74.9,1.8,56.8,8.1,42,18.7l0.7,0.3c0,0,8.8,3.3,11.2,5.8c2.4,2.5,0.7,0.4,2.8-1.1
   					c2.1-1.6,4.3-4.4,5.5-4.7c1.1-0.3,8.4-1,9.8,0c1.4,0.9,6.2,9.1,5.4,9.8c-0.8,0.7-13,1.6-15.2,0.5C60,28.2,49,33.1,48.2,31.8
   					c-0.8-1.3,3.2,6.3-0.4,6.2c-3.6-0.1,7,7.9,11.1,1.5c1.9-3,8.3,0.4,14.4-5c8.2-7.2,8.6,4.3,8.6,4.3s1.7,2.5-0.2,5.4
   					c-2.6,4-5.5,8.8-11.9,3.8c-1-0.8-7.1,0.4-10.7,0C39.3,46,50.5,80.4,46.4,78.4 M131.6,31.4l4.7,0.5c0,0,3.6,2.8,3.6,3.2
   					c0,0.4-1.1,2.7-1.5,3.1c-0.3,0.4-1.8,2.8-2.8,3.1c-1,0.3-2.9,0-2.9,0s1.4-2.3-0.7-3.1c-2.2-0.8-2.3-5-2.3-5L131.6,31.4z
   					M123.3,35.1h4.4l1.3,1l1.2,3c0,0-1.5,2-4.2,2.2c-2.7,0.2-1.8-1.3-2.8-1.8C122.3,39.1,123.3,35.1,123.3,35.1z M76.5,59.5
   					c-0.4,0.8-1.9,2.1-4.3,1.4c-2.5-0.6-1.2-4.3-1.9-6.4h3.4c3.4,0,1.5,0.2,2.8,1.4C77.7,57.2,76.9,58.6,76.5,59.5z M81.8,57.8
   					c-2.3-0.6-1.6,1.9-3.5,0c-1.9-1.9-1.2-6.6-1.2-6.6h6.4C83.5,51.2,84.1,58.4,81.8,57.8z"/>
   				</g>
   			</g>
   			<g id="pin">
   				<path class="sta2" d="M79.8,123.1c0-5.5-4.5-10-10-10s-10,4.5-10,10c0,2.3,1,4.3,2,6h0l8.1,13.3l7.8-13.3h0
   					C78.8,127.4,79.8,125.3,79.8,123.1z"/>
   					<circle class="sta0" cx="69.9" cy="123.1" r="5.6"/>
   					<circle class="sta1" cx="69.9" cy="123.1" r="3.1"/>
   				</g>
   			</svg>