<?xml version="1.0" encoding="UTF-8"?><!DOCTYPE svg PUBLIC "-//W3C//DTD SVG 1.1//EN" "http://www.w3.org/Graphics/SVG/1.1/DTD/svg11.dtd"><svg xmlns="http://www.w3.org/2000/svg"><symbol id="behance" viewBox="0 0 1792 1792">
    <path d="M1720 339h-511v124h511V339zm-252 426q-90 0-146 52.5T1260 960h408q-18-195-200-195zm16 585q63 0 122-32t76-87h221q-100 307-427 307-214 0-340.5-132T1009 1059q0-208 130.5-345.5T1476 576q138 0 240.5 68t153 179 50.5 248q0 17-2 47h-658q0 111 57.5 171.5T1484 1350zm-1335-50h296q205 0 205-167 0-180-199-180H149v347zm0-537h281q78 0 123.5-36.5T599 613q0-144-190-144H149v294zm-277-509h594q87 0 155 14t126.5 47.5 90 96.5T869 566q0 181-172 263 114 32 172 115t58 204q0 75-24.5 136.5t-66 103.5-98.5 71-121 42-134 13h-611V254z"/>
</symbol><symbol id="envelope-o" viewBox="0 0 1792 1792">
    <path d="M1664 1504V736q-32 36-69 66-268 206-426 338-51 43-83 67t-86.5 48.5T897 1280h-2q-48 0-102.5-24.5T706 1207t-83-67q-158-132-426-338-37-30-69-66v768q0 13 9.5 22.5t22.5 9.5h1472q13 0 22.5-9.5t9.5-22.5zm0-1051v-24.5l-.5-13-3-12.5-5.5-9-9-7.5-14-2.5H160q-13 0-22.5 9.5T128 416q0 168 147 284 193 152 401 317 6 5 35 29.5t46 37.5 44.5 31.5T852 1143t43 9h2q20 0 43-9t50.5-27.5 44.5-31.5 46-37.5 35-29.5q208-165 401-317 54-43 100.5-115.5T1664 453zm128-37v1088q0 66-47 113t-113 47H160q-66 0-113-47T0 1504V416q0-66 47-113t113-47h1472q66 0 113 47t47 113z"/>
</symbol><symbol id="facebook" viewBox="0 0 1792 1792">
    <path d="M1343 12v264h-157q-86 0-116 36t-30 108v189h293l-39 296h-254v759H734V905H479V609h255V391q0-186 104-288.5T1115 0q147 0 228 12z"/>
</symbol><symbol id="github-alt" viewBox="0 0 1792 1792">
    <path d="M704 1216q0 40-12.5 82t-43 76-72.5 34-72.5-34-43-76-12.5-82 12.5-82 43-76 72.5-34 72.5 34 43 76 12.5 82zm640 0q0 40-12.5 82t-43 76-72.5 34-72.5-34-43-76-12.5-82 12.5-82 43-76 72.5-34 72.5 34 43 76 12.5 82zm160 0q0-120-69-204t-187-84q-41 0-195 21-71 11-157 11t-157-11q-152-21-195-21-118 0-187 84t-69 204q0 88 32 153.5t81 103 122 60 140 29.5 149 7h168q82 0 149-7t140-29.5 122-60 81-103 32-153.5zm224-176q0 207-61 331-38 77-105.5 133t-141 86-170 47.5-171.5 22-167 4.5q-78 0-142-3t-147.5-12.5-152.5-30-137-51.5-121-81-86-115q-62-123-62-331 0-237 136-396-27-82-27-170 0-116 51-218 108 0 190 39.5T603 419q147-35 309-35 148 0 280 32 105-82 187-121t189-39q51 102 51 218 0 87-27 168 136 160 136 398z"/>
</symbol><symbol id="instagram" viewBox="0 0 1792 1792">
    <path d="M1490 1426V778h-135q20 63 20 131 0 126-64 232.5T1137 1310t-240 62q-197 0-337-135.5T420 909q0-68 20-131H299v648q0 26 17.5 43.5T360 1487h1069q25 0 43-17.5t18-43.5zm-284-533q0-124-90.5-211.5T897 594q-127 0-217.5 87.5T589 893t90.5 211.5T897 1192q128 0 218.5-87.5T1206 893zm284-360V368q0-28-20-48.5t-49-20.5h-174q-29 0-49 20.5t-20 48.5v165q0 29 20 49t49 20h174q29 0 49-20t20-49zm174-208v1142q0 81-58 139t-139 58H325q-81 0-139-58t-58-139V325q0-81 58-139t139-58h1142q81 0 139 58t58 139z"/>
</symbol><symbol id="linkedin" viewBox="0 0 1792 1792">
    <path d="M477 625v991H147V625h330zm21-306q1 73-50.5 122T312 490h-2q-82 0-132-49t-50-122q0-74 51.5-122.5T314 148t133 48.5T498 319zm1166 729v568h-329v-530q0-105-40.5-164.5T1168 862q-63 0-105.5 34.5T999 982q-11 30-11 81v553H659q2-399 2-647t-1-296l-1-48h329v144h-2q20-32 41-56t56.5-52 87-43.5T1285 602q171 0 275 113.5t104 332.5z"/>
</symbol><symbol id="map-marker" viewBox="0 0 1792 1792">
    <path d="M1152 640q0-106-75-181t-181-75-181 75-75 181 75 181 181 75 181-75 75-181zm256 0q0 109-33 179l-364 774q-16 33-47.5 52t-67.5 19-67.5-19-46.5-52L417 819q-33-70-33-179 0-212 150-362t362-150 362 150 150 362z"/>
</symbol><symbol id="mobile" viewBox="0 0 1792 1792">
    <path d="M976 1408q0-33-23.5-56.5T896 1328t-56.5 23.5T816 1408t23.5 56.5T896 1488t56.5-23.5T976 1408zm208-160V544q0-13-9.5-22.5T1152 512H640q-13 0-22.5 9.5T608 544v704q0 13 9.5 22.5t22.5 9.5h512q13 0 22.5-9.5t9.5-22.5zM992 400q0-16-16-16H816q-16 0-16 16t16 16h160q16 0 16-16zm288-16v1024q0 52-38 90t-90 38H640q-52 0-90-38t-38-90V384q0-52 38-90t90-38h512q52 0 90 38t38 90z"/>
</symbol><symbol id="twitter" viewBox="0 0 1792 1792">
    <path d="M1684 408q-67 98-162 167 1 14 1 42 0 130-38 259.5T1369.5 1125 1185 1335.5t-258 146-323 54.5q-271 0-496-145 35 4 78 4 225 0 401-138-105-2-188-64.5T285 1033q33 5 61 5 43 0 85-11-112-23-185.5-111.5T172 710v-4q68 38 146 41-66-44-105-115t-39-154q0-88 44-163 121 149 294.5 238.5T884 653q-8-38-8-74 0-134 94.5-228.5T1199 256q140 0 236 102 109-21 205-78-37 115-142 178 93-10 186-50z"/>
</symbol><symbol id="whatsapp" viewBox="0 0 1792 1792">
    <path d="M1113 974q13 0 97.5 44t89.5 53q2 5 2 15 0 33-17 76-16 39-71 65.5t-102 26.5q-57 0-190-62-98-45-170-118T604 889q-72-107-71-194v-8q3-91 74-158 24-22 52-22 6 0 18 1.5t19 1.5q19 0 26.5 6.5T738 544q8 20 33 88t25 75q0 21-34.5 57.5T727 811q0 7 5 15 34 73 102 137 56 53 151 101 12 7 22 7 15 0 54-48.5t52-48.5zm-203 530q127 0 243.5-50t200.5-134 134-200.5 50-243.5-50-243.5T1354 432t-200.5-134T910 248t-243.5 50T466 432 332 632.5 282 876q0 203 120 368l-79 233 242-77q158 104 345 104zm0-1382q153 0 292.5 60T1443 343t161 240.5 60 292.5-60 292.5-161 240.5-240.5 161-292.5 60q-195 0-365-94l-417 134 136-405q-108-178-108-389 0-153 60-292.5T377 343t240.5-161T910 122z"/>
</symbol>
<symbol id="dribbble" viewBox="0 0 1792 1792">
<path d="M1152 1500q-42-241-140-498h-2l-2 1q-16 6-43 16.5t-101 49-137 82-131 114.5-103 148l-15-11q184 150 418 150 132 0 256-52zm-185-607q-21-49-53-111-311 93-673 93-1 7-1 21 0 124 44 236.5t124 201.5q50-89 123.5-166.5t142.5-124.5 130.5-81 99.5-48l37-13q4-1 13-3.5t13-4.5zm-107-212q-120-213-244-378-138 65-234 186t-128 272q302 0 606-80zm684 319q-210-60-409-29 87 239 128 469 111-75 185-189.5t96-250.5zm-805-741q-1 0-2 1 1-1 2-1zm590 145q-185-164-433-164-76 0-155 19 131 170 246 382 69-26 130-60.5t96.5-61.5 65.5-57 37.5-40.5zm223 485q-3-232-149-410l-1 1q-9 12-19 24.5t-43.5 44.5-71 60.5-100 65-131.5 64.5q25 53 44 95 2 5 6.5 17t7.5 17q36-5 74.5-7t73.5-2 69 1.5 64 4 56.5 5.5 48 6.5 36.5 6 25 4.5zm112 7q0 209-103 385.5t-279.5 279.5-385.5 103-385.5-103-279.5-279.5-103-385.5 103-385.5 279.5-279.5 385.5-103 385.5 103 279.5 279.5 103 385.5z"/>
</symbol></svg>

